<?xml version="1.0" encoding="UTF-8" standalone="no"?>
<!-- Created by Flowgorithm 2.30.3 (http://flowgorithm.org) -->

<svg xmlns:svg="http://www.w3.org/2000/svg" xmlns="http://www.w3.org/2000/svg" version="1.1" width="227" height="235">
	<rect x="0" y="0" width="227" height="235" fill="#FFFFFF"/>
	<g>
		<polyline fill="none" stroke="#404040" stroke-width="0" stroke-dasharray="none" points="111,108 111,110"/>
		<polygon fill="#404040" stroke="none" points="111,111 111,110 110,110"/>
		<polyline fill="none" stroke="#404040" stroke-width="0" stroke-dasharray="none" points="111,119 111,126"/>
		<polygon fill="#404040" stroke="none" points="111,127 111,126 110,126"/>
		<g>
			<path fill="#9040D0" stroke="#482068" stroke-width="0" stroke-dasharray="none" d="M 107,104 A 2,2 0 0,0 107,108 L 115,108 A 2,2 0 0,0 115,104 Z"/>
			<polyline fill="none" stroke="#482068" stroke-width="0" stroke-dasharray="none" points="107,104 107,108"/>
			<polyline fill="none" stroke="#482068" stroke-width="0" stroke-dasharray="none" points="115,104 115,108"/>
			<text x="111" y="105" fill="#FFFFFF" font-family="Tahoma" font-size="32pt" text-anchor="middle" direction="ltr">
				<tspan x="111" dy="2" unicode-bidi="embed">Main</tspan>
			</text>
		</g>
		<g>
			<path fill="#9040D0" stroke="#482068" stroke-width="0" stroke-dasharray="none" d="M 107,127 A 2,2 0 0,0 107,131 L 115,131 A 2,2 0 0,0 115,127 Z"/>
			<text x="111" y="128" fill="#FFFFFF" font-family="Tahoma" font-size="32pt" text-anchor="middle" direction="ltr">
				<tspan x="111" dy="2" unicode-bidi="embed">End</tspan>
			</text>
		</g>
		<g>
			<polyline fill="none" stroke="#404040" stroke-width="0" stroke-dasharray="none" points="118,115 123,115 123,124 113,124 113,119"/>
			<polygon fill="#404040" stroke="none" points="113,119 112,119 113,119"/>
			<g>
			</g>
			<g>
				<path fill="#E06000" stroke="#703000" stroke-width="0" stroke-dasharray="none" d="M 111,111 L 104,115 L 111,119 L 118,115 Z"/>
				<text x="111" y="114" fill="#FFFFFF" font-family="Tahoma" font-size="32pt" text-anchor="middle" direction="ltr">
					<tspan x="111" dy="2" unicode-bidi="embed">condition</tspan>
				</text>
			</g>
			<text x="121" y="112" fill="#000000" font-family="Tahoma" font-size="32pt" text-anchor="middle" direction="ltr">
				<tspan x="121" dy="2" unicode-bidi="embed">True</tspan>
			</text>
			<text x="108" y="120" fill="#000000" font-family="Tahoma" font-size="32pt" text-anchor="middle" direction="ltr">
				<tspan x="108" dy="2" unicode-bidi="embed">False</tspan>
			</text>
		</g>
	</g>
</svg>
